<svg id="Layer_1" data-name="Layer 1" xmlns="http://www.w3.org/2000/svg" viewBox="0 0 340.04 307.15"><defs><style>.cls-1{fill:#ffa300;}</style></defs><path class="cls-1" d="M137.32,152.49a14.28,14.28,0,0,0,0,28.55h64.89a14.28,14.28,0,1,0,0-28.55Z" transform="translate(-0.44 -0.97)"/><path class="cls-1" d="M184.45,72.24c24.42,8.26,54,36.56,66.11,70.52l82.11-14.06L258.93,1H176.11" transform="translate(-0.44 -0.97)"/><path class="cls-1" d="M340.48,166.87,258.93,308.12H81.6L.44,167.54l85.94,14.72c3.9,46.23,38.31,78.92,84.69,78.92,46.68,0,81.22-33.12,84.75-79.82Z" transform="translate(-0.44 -0.97)"/><path class="cls-1" d="M167.59,1h-86L7.53,129.26l84.13,14.4c12.56-34.13,43.58-63.75,67.68-71.74" transform="translate(-0.44 -0.97)"/></svg>