<svg id="Layer_1" data-name="Layer 1" xmlns="http://www.w3.org/2000/svg" viewBox="0 0 1191.14 307.15"><defs><style>.cls-1{fill:#ffa300;}</style></defs><path class="cls-1" d="M137.32,152.49a14.28,14.28,0,0,0,0,28.55h64.89a14.28,14.28,0,1,0,0-28.55Z" transform="translate(-0.44 -0.97)"/><path class="cls-1" d="M184.45,72.24c24.42,8.26,54,36.56,66.11,70.52l82.11-14.06L258.93,1H176.11" transform="translate(-0.44 -0.97)"/><path class="cls-1" d="M340.48,166.87,258.93,308.12H81.6L.44,167.54l85.94,14.72c3.9,46.23,38.31,78.92,84.69,78.92,46.68,0,81.22-33.12,84.75-79.82Z" transform="translate(-0.44 -0.97)"/><path class="cls-1" d="M167.59,1h-86L7.53,129.26l84.13,14.4c12.56-34.13,43.58-63.75,67.68-71.74" transform="translate(-0.44 -0.97)"/><path class="cls-1" d="M497.4,155.18c.51,30.23-17.94,60.81-59.79,60.81h-47V96.41h47C478.61,96.41,496.89,125.63,497.4,155.18ZM413,194.3h24.6c27.16,0,37.93-19.82,37.41-39.3-.51-18.61-11.44-37.23-37.41-37.23H413Z" transform="translate(-0.44 -0.97)"/><path class="cls-1" d="M631.49,156.89c-.35,30.92-19.31,61.84-61.33,61.84s-61.5-30.24-61.5-61.67,20.16-63,61.5-63C611.33,94,631.83,125.63,631.49,156.89Zm-100.62.51c.51,19.64,11.1,40.66,39.29,40.66s38.78-21.19,39.12-40.83c.34-20.16-10.93-42.71-39.12-42.71S530.36,137.24,530.87,157.4Z" transform="translate(-0.44 -0.97)"/><path class="cls-1" d="M704.42,180.8H670.59V216H648V96.41c18.79,0,37.59-.17,56.38-.17C762.84,96.24,763,180.8,704.42,180.8Zm-33.83-20.66h33.83c28.87,0,28.7-42.37,0-42.37H670.59Z" transform="translate(-0.44 -0.97)"/><path class="cls-1" d="M819.89,180.8H786.06V216H763.52V96.41c18.79,0,37.58-.17,56.37-.17C878.31,96.24,878.48,180.8,819.89,180.8Zm-33.83-20.66h33.83c28.87,0,28.69-42.37,0-42.37H786.06Z" transform="translate(-0.44 -0.97)"/><path class="cls-1" d="M901.53,96.41v98.74H963V216H879V96.41Z" transform="translate(-0.44 -0.97)"/><path class="cls-1" d="M1068.08,216H978.57V96.41h89.51v21.87H1001v27.5h64.74v21H1001v27h67.13Z" transform="translate(-0.44 -0.97)"/><path class="cls-1" d="M1191.58,216h-26.82l-34.85-40h-21.7v40h-22.54V96.24c18.95,0,37.92.17,56.88.17,28.18.18,43,19,43,39.63,0,16.4-7.52,33-30.24,37.58l36.22,40.83Zm-83.37-98.57v38.27h34.34c14.35,0,20.5-9.57,20.5-19.13s-6.32-19.14-20.5-19.14Z" transform="translate(-0.44 -0.97)"/></svg>